<svg width="13" height="13" viewBox="0 0 13 13" fill="none" xmlns="http://www.w3.org/2000/svg">
    <g clip-path="url(#clip0_13287_5337)">
        <mask id="mask0_13287_5337" style="mask-type:luminance" maskUnits="userSpaceOnUse" x="1" y="2" width="11" height="10">
            <path d="M11.9173 2H1.08398V11.439H11.9173V2Z" fill="white"/>
        </mask>
        <g mask="url(#mask0_13287_5337)">
            <path d="M11.8616 9.44193L10.0732 11.3104C10.0343 11.351 9.98721 11.3833 9.93497 11.4054C9.88272 11.4276 9.82633 11.439 9.76938 11.439H1.2916C1.25115 11.439 1.21158 11.4274 1.17775 11.4058C1.14393 11.3842 1.11732 11.3534 1.10119 11.3173C1.08507 11.2812 1.08013 11.2412 1.08699 11.2024C1.09385 11.1635 1.11221 11.1275 1.13981 11.0987L2.92953 9.23019C2.9683 9.18973 3.01518 9.15748 3.06728 9.13538C3.11938 9.11319 3.17559 9.10174 3.23243 9.10166H11.7097C11.7502 9.10166 11.7897 9.11319 11.8235 9.13481C11.8573 9.15642 11.884 9.18721 11.9002 9.22329C11.9162 9.25944 11.9212 9.29942 11.9143 9.33826C11.9075 9.37709 11.8891 9.41309 11.8616 9.44193ZM10.0732 5.67939C10.0343 5.6388 9.98721 5.60644 9.93497 5.58432C9.88272 5.56221 9.82633 5.55081 9.76938 5.55084H1.2916C1.25115 5.55084 1.21158 5.56236 1.17775 5.58397C1.14393 5.60558 1.11732 5.63634 1.10119 5.67248C1.08507 5.70862 1.08013 5.74857 1.08699 5.78741C1.09385 5.82623 1.11221 5.86228 1.13981 5.8911L2.92953 7.75956C2.9683 7.80004 3.01518 7.83232 3.06728 7.85444C3.11938 7.87654 3.17559 7.88802 3.23243 7.8881H11.7097C11.7502 7.8881 11.7897 7.87659 11.8235 7.85498C11.8573 7.83336 11.884 7.8026 11.9002 7.76647C11.9162 7.73032 11.9212 7.69038 11.9143 7.65154C11.9075 7.61271 11.8891 7.57667 11.8616 7.54785L10.0732 5.67939ZM1.2916 4.33726H9.76938C9.82633 4.33729 9.88272 4.3259 9.93497 4.30378C9.98721 4.28166 10.0343 4.2493 10.0732 4.20872L11.8616 2.34025C11.8891 2.31144 11.9075 2.2754 11.9143 2.23657C11.9212 2.19773 11.9162 2.15779 11.9002 2.12164C11.884 2.0855 11.8573 2.05474 11.8235 2.03313C11.7897 2.01151 11.7502 2 11.7097 2H3.23243C3.17559 2.0001 3.11938 2.01155 3.06728 2.03366C3.01518 2.05578 2.9683 2.08807 2.92953 2.12855L1.14026 3.99701C1.11269 4.02579 1.09435 4.0618 1.08747 4.10058C1.0806 4.13938 1.08549 4.17929 1.10156 4.21542C1.11763 4.25154 1.14416 4.2823 1.17792 4.30395C1.21168 4.32559 1.25118 4.33716 1.2916 4.33726Z" fill="url(#paint0_linear_13287_5337)"/>
        </g>
    </g>
    <defs>
        <linearGradient id="paint0_linear_13287_5337" x1="1.99844" y1="11.6639" x2="8.73661" y2="-1.96896" gradientUnits="userSpaceOnUse">
            <stop offset="0.08" stop-color="#9945FF"/>
            <stop offset="0.3" stop-color="#8752F3"/>
            <stop offset="0.5" stop-color="#5497D5"/>
            <stop offset="0.6" stop-color="#43B4CA"/>
            <stop offset="0.72" stop-color="#28E0B9"/>
            <stop offset="0.97" stop-color="#19FB9B"/>
        </linearGradient>
        <clipPath id="clip0_13287_5337">
            <rect width="13" height="13" fill="white"/>
        </clipPath>
    </defs>
</svg>
